<svg xmlns="http://www.w3.org/2000/svg" width="200" height="200" viewBox="0 0 64 64" fill="currentColor" shape-rendering="crispEdges">
  <defs>
    <linearGradient id="pinkGloss" x1="0" y1="0" x2="0" y2="1">
      <stop offset="0%" stop-color="#ff9ac7"/>
      <stop offset="60%" stop-color="#ff5fa2"/>
      <stop offset="100%" stop-color="#ff3f94"/>
    </linearGradient>
  </defs>
  <g>
    <rect x="14" y="18" width="6" height="6" fill="url(#pinkGloss)"/>
    <rect x="20" y="12" width="6" height="6" fill="url(#pinkGloss)"/>
    <rect x="26" y="12" width="6" height="6" fill="url(#pinkGloss)"/>
    <rect x="32" y="12" width="6" height="6" fill="url(#pinkGloss)"/>
    <rect x="38" y="12" width="6" height="6" fill="url(#pinkGloss)"/>
    <rect x="44" y="18" width="6" height="6" fill="url(#pinkGloss)"/>
    <rect x="14" y="24" width="6" height="6" fill="url(#pinkGloss)"/>
    <rect x="20" y="24" width="6" height="6" fill="url(#pinkGloss)"/>
    <rect x="26" y="24" width="6" height="6" fill="url(#pinkGloss)"/>
    <rect x="32" y="24" width="6" height="6" fill="url(#pinkGloss)"/>
    <rect x="38" y="24" width="6" height="6" fill="url(#pinkGloss)"/>
    <rect x="44" y="24" width="6" height="6" fill="url(#pinkGloss)"/>
    <rect x="14" y="30" width="6" height="6" fill="url(#pinkGloss)"/>
    <rect x="20" y="30" width="6" height="6" fill="url(#pinkGloss)"/>
    <rect x="26" y="30" width="6" height="6" fill="url(#pinkGloss)"/>
    <rect x="32" y="30" width="6" height="6" fill="url(#pinkGloss)"/>
    <rect x="38" y="30" width="6" height="6" fill="url(#pinkGloss)"/>
    <rect x="44" y="30" width="6" height="6" fill="url(#pinkGloss)"/>
    <rect x="20" y="36" width="6" height="6" fill="url(#pinkGloss)"/>
    <rect x="26" y="36" width="6" height="6" fill="url(#pinkGloss)"/>
    <rect x="32" y="36" width="6" height="6" fill="url(#pinkGloss)"/>
    <rect x="38" y="36" width="6" height="6" fill="url(#pinkGloss)"/>
    <rect x="26" y="42" width="6" height="6" fill="url(#pinkGloss)"/>
    <rect x="32" y="42" width="6" height="6" fill="url(#pinkGloss)"/>
  </g>
  <rect x="20" y="14" width="4" height="4" fill="#fff" opacity="0.6"/>
  <rect x="26" y="14" width="2" height="2" fill="#fff" opacity="0.4"/>
</svg>

 